<?xml version="1.0" standalone="no"?>
<!DOCTYPE svg PUBLIC "-//W3C//DTD SVG 20010904//EN"
 "http://www.w3.org/TR/2001/REC-SVG-20010904/DTD/svg10.dtd">
<svg version="1.0" xmlns="http://www.w3.org/2000/svg"
 width="1654.000000pt" height="1369.000000pt" viewBox="0 0 1654.000000 1369.000000"
 preserveAspectRatio="xMidYMid meet">
<metadata>
Created by potrace 1.16, written by Peter Selinger 2001-2019
</metadata>
<g transform="translate(0.000000,1369.000000) scale(0.100000,-0.100000)"
fill="#000000" stroke="none">
<path d="M10185 13528 c-435 -44 -963 -282 -1415 -638 -58 -46 -110 -87 -116
-91 -7 -5 -44 23 -100 77 -218 210 -466 362 -732 448 -451 146 -991 53 -1475
-252 -447 -282 -825 -706 -1215 -1362 -402 -676 -718 -1136 -1063 -1550 -286
-342 -462 -497 -884 -776 -325 -215 -416 -334 -418 -544 -1 -179 94 -319 383
-565 211 -180 517 -494 659 -678 l43 -57 -112 -117 c-619 -647 -1066 -1355
-1321 -2091 -96 -279 -168 -589 -211 -907 -30 -231 -33 -761 -5 -980 62 -474
173 -858 352 -1215 361 -719 960 -1321 1659 -1664 445 -219 879 -344 1381
-397 176 -19 615 -16 803 5 524 58 1000 192 1437 406 708 345 1369 1061 1690
1827 38 89 41 93 75 99 451 71 797 239 1156 562 343 307 709 841 973 1420 159
349 240 587 466 1367 211 731 406 1206 693 1681 283 470 549 802 1008 1259
241 240 253 254 292 335 47 98 67 196 58 282 -21 208 -118 377 -281 493 -33
24 -143 87 -243 139 -101 53 -226 124 -280 158 -724 465 -1048 933 -1443 2083
-122 357 -230 536 -459 766 -149 149 -275 241 -442 322 -273 133 -595 188
-913 155z m540 -628 c414 -111 607 -445 444 -769 -71 -143 -175 -215 -309
-216 -138 0 -233 69 -286 209 -47 124 -100 187 -193 230 -39 18 -64 21 -161
20 -101 0 -128 -5 -220 -34 -59 -18 -137 -35 -177 -38 -64 -4 -79 -1 -125 21
-32 16 -63 41 -77 62 -20 30 -23 43 -18 93 11 131 124 266 287 345 172 83 310
108 570 103 150 -3 200 -8 265 -26z m-3110 -130 c136 -34 238 -91 331 -184
111 -111 149 -188 149 -301 0 -69 -4 -89 -32 -147 -68 -144 -234 -258 -374
-258 -109 0 -240 85 -269 176 -51 158 -150 238 -295 237 -71 -1 -75 -2 -360
-103 -104 -38 -173 -37 -226 1 -70 50 -89 164 -42 258 82 162 387 301 753 345
80 10 287 -4 365 -24z m2250 -2069 c263 -45 464 -110 710 -231 274 -134 533
-315 749 -521 l101 -96 -65 -42 c-82 -51 -202 -96 -317 -115 -149 -27 -470
-16 -608 19 -16 4 -30 -10 -70 -67 -27 -40 -91 -113 -141 -163 -376 -378 -892
-445 -1524 -199 -99 39 -267 121 -336 164 -19 12 -31 7 -114 -49 -227 -152
-443 -221 -690 -221 -356 0 -727 174 -1037 486 l-72 72 -116 -23 c-364 -74
-659 -17 -860 166 -53 49 -135 160 -135 183 0 23 228 169 425 272 605 315
1162 389 1684 222 53 -16 177 -62 275 -100 228 -89 307 -105 435 -89 193 24
417 94 661 208 152 72 324 121 500 143 117 14 407 4 545 -19z m965 -3059 c20
-16 22 -22 12 -49 -6 -17 -51 -87 -100 -156 -270 -377 -618 -1034 -912 -1722
-213 -499 -302 -772 -545 -1670 -97 -358 -188 -667 -239 -807 -136 -377 -284
-647 -437 -800 -144 -143 -289 -187 -448 -139 -124 38 -181 120 -181 262 0
110 33 193 152 385 205 332 310 517 473 839 143 284 219 450 432 945 258 600
360 822 528 1155 366 725 744 1303 1080 1653 67 71 130 120 156 122 4 0 17 -8
29 -18z"/>
</g>
</svg>
